<mxfile host="app.diagrams.net" modified="2022-07-09T23:28:26.838Z" agent="5.0 (Windows NT 10.0; Win64; x64) AppleWebKit/537.36 (KHTML, like Gecko) Chrome/103.0.0.0 Safari/537.36" etag="r9JkxkFRj3Ma3JvI9_12" version="20.0.1" type="github">
  <diagram id="JYCPzS1wESbc4Vl3_kTx" name="HTTP">
    <mxGraphModel dx="1221" dy="634" grid="1" gridSize="10" guides="1" tooltips="1" connect="1" arrows="1" fold="1" page="1" pageScale="1" pageWidth="850" pageHeight="1100" math="0" shadow="0">
      <root>
        <mxCell id="0" />
        <mxCell id="1" parent="0" />
        <mxCell id="JOs6g6HiKCz4FtPnYZxF-170" value="" style="endArrow=none;html=1;labelBackgroundColor=none;fontSize=13;fontColor=#000000;strokeColor=#B5739D;edgeStyle=entityRelationEdgeStyle;strokeWidth=2;" parent="1" edge="1">
          <mxGeometry width="50" height="50" relative="1" as="geometry">
            <mxPoint x="2990" y="510" as="sourcePoint" />
            <mxPoint x="3050" y="1030" as="targetPoint" />
          </mxGeometry>
        </mxCell>
        <mxCell id="JOs6g6HiKCz4FtPnYZxF-168" value="" style="endArrow=none;html=1;labelBackgroundColor=none;fontSize=13;fontColor=#000000;strokeColor=#B5739D;edgeStyle=entityRelationEdgeStyle;strokeWidth=2;" parent="1" edge="1">
          <mxGeometry width="50" height="50" relative="1" as="geometry">
            <mxPoint x="3840" y="990" as="sourcePoint" />
            <mxPoint x="3900" y="1350" as="targetPoint" />
          </mxGeometry>
        </mxCell>
        <mxCell id="JOs6g6HiKCz4FtPnYZxF-169" value="" style="endArrow=none;html=1;labelBackgroundColor=none;fontSize=13;fontColor=#000000;strokeColor=#B5739D;edgeStyle=entityRelationEdgeStyle;strokeWidth=2;" parent="1" edge="1">
          <mxGeometry width="50" height="50" relative="1" as="geometry">
            <mxPoint x="3840" y="1270" as="sourcePoint" />
            <mxPoint x="3900" y="1350" as="targetPoint" />
          </mxGeometry>
        </mxCell>
        <mxCell id="JOs6g6HiKCz4FtPnYZxF-157" value="" style="endArrow=none;html=1;labelBackgroundColor=none;fontSize=13;fontColor=#000000;strokeColor=#B5739D;edgeStyle=entityRelationEdgeStyle;strokeWidth=2;" parent="1" edge="1">
          <mxGeometry width="50" height="50" relative="1" as="geometry">
            <mxPoint x="3830" y="430" as="sourcePoint" />
            <mxPoint x="3890" y="1310" as="targetPoint" />
          </mxGeometry>
        </mxCell>
        <mxCell id="JOs6g6HiKCz4FtPnYZxF-158" value="" style="endArrow=none;html=1;labelBackgroundColor=none;fontSize=13;fontColor=#000000;strokeColor=#B5739D;edgeStyle=entityRelationEdgeStyle;strokeWidth=2;" parent="1" edge="1">
          <mxGeometry width="50" height="50" relative="1" as="geometry">
            <mxPoint x="3830" y="670" as="sourcePoint" />
            <mxPoint x="3890" y="1310" as="targetPoint" />
          </mxGeometry>
        </mxCell>
        <mxCell id="JOs6g6HiKCz4FtPnYZxF-159" value="" style="endArrow=none;html=1;labelBackgroundColor=none;fontSize=13;fontColor=#000000;strokeColor=#B5739D;edgeStyle=entityRelationEdgeStyle;strokeWidth=2;" parent="1" edge="1">
          <mxGeometry width="50" height="50" relative="1" as="geometry">
            <mxPoint x="3830" y="710" as="sourcePoint" />
            <mxPoint x="3890" y="1310" as="targetPoint" />
          </mxGeometry>
        </mxCell>
        <mxCell id="JOs6g6HiKCz4FtPnYZxF-160" value="" style="endArrow=none;html=1;labelBackgroundColor=none;fontSize=13;fontColor=#000000;strokeColor=#B5739D;edgeStyle=entityRelationEdgeStyle;strokeWidth=2;" parent="1" edge="1">
          <mxGeometry width="50" height="50" relative="1" as="geometry">
            <mxPoint x="3830" y="750" as="sourcePoint" />
            <mxPoint x="3890" y="1310" as="targetPoint" />
          </mxGeometry>
        </mxCell>
        <mxCell id="JOs6g6HiKCz4FtPnYZxF-161" value="" style="endArrow=none;html=1;labelBackgroundColor=none;fontSize=13;fontColor=#000000;strokeColor=#B5739D;edgeStyle=entityRelationEdgeStyle;strokeWidth=2;" parent="1" edge="1">
          <mxGeometry width="50" height="50" relative="1" as="geometry">
            <mxPoint x="3830" y="790" as="sourcePoint" />
            <mxPoint x="3890" y="1310" as="targetPoint" />
          </mxGeometry>
        </mxCell>
        <mxCell id="JOs6g6HiKCz4FtPnYZxF-162" value="" style="endArrow=none;html=1;labelBackgroundColor=none;fontSize=13;fontColor=#000000;strokeColor=#B5739D;edgeStyle=entityRelationEdgeStyle;strokeWidth=2;" parent="1" edge="1">
          <mxGeometry width="50" height="50" relative="1" as="geometry">
            <mxPoint x="3830" y="870" as="sourcePoint" />
            <mxPoint x="3890" y="1310" as="targetPoint" />
          </mxGeometry>
        </mxCell>
        <mxCell id="JOs6g6HiKCz4FtPnYZxF-163" value="" style="endArrow=none;html=1;labelBackgroundColor=none;fontSize=13;fontColor=#000000;strokeColor=#B5739D;edgeStyle=entityRelationEdgeStyle;strokeWidth=2;" parent="1" edge="1">
          <mxGeometry width="50" height="50" relative="1" as="geometry">
            <mxPoint x="3830" y="950" as="sourcePoint" />
            <mxPoint x="3890" y="1310" as="targetPoint" />
          </mxGeometry>
        </mxCell>
        <mxCell id="JOs6g6HiKCz4FtPnYZxF-164" value="" style="endArrow=none;html=1;labelBackgroundColor=none;fontSize=13;fontColor=#000000;strokeColor=#B5739D;edgeStyle=entityRelationEdgeStyle;strokeWidth=2;" parent="1" edge="1">
          <mxGeometry width="50" height="50" relative="1" as="geometry">
            <mxPoint x="3830" y="1070" as="sourcePoint" />
            <mxPoint x="3890" y="1310" as="targetPoint" />
          </mxGeometry>
        </mxCell>
        <mxCell id="JOs6g6HiKCz4FtPnYZxF-166" value="" style="endArrow=none;html=1;labelBackgroundColor=none;fontSize=13;fontColor=#000000;strokeColor=#B5739D;edgeStyle=entityRelationEdgeStyle;strokeWidth=2;" parent="1" edge="1">
          <mxGeometry width="50" height="50" relative="1" as="geometry">
            <mxPoint x="3830" y="1190" as="sourcePoint" />
            <mxPoint x="3890" y="1310" as="targetPoint" />
          </mxGeometry>
        </mxCell>
        <mxCell id="JOs6g6HiKCz4FtPnYZxF-154" value="" style="endArrow=none;html=1;labelBackgroundColor=none;fontSize=13;fontColor=#000000;strokeColor=#B5739D;edgeStyle=entityRelationEdgeStyle;strokeWidth=2;" parent="1" edge="1">
          <mxGeometry width="50" height="50" relative="1" as="geometry">
            <mxPoint x="3460" y="550" as="sourcePoint" />
            <mxPoint x="3520" y="1230" as="targetPoint" />
          </mxGeometry>
        </mxCell>
        <mxCell id="JOs6g6HiKCz4FtPnYZxF-151" value="" style="endArrow=none;html=1;labelBackgroundColor=none;fontSize=13;fontColor=#000000;strokeColor=#B5739D;edgeStyle=entityRelationEdgeStyle;strokeWidth=2;" parent="1" edge="1">
          <mxGeometry width="50" height="50" relative="1" as="geometry">
            <mxPoint x="3010" y="350" as="sourcePoint" />
            <mxPoint x="3070" y="1110" as="targetPoint" />
          </mxGeometry>
        </mxCell>
        <mxCell id="JOs6g6HiKCz4FtPnYZxF-152" value="" style="endArrow=none;html=1;labelBackgroundColor=none;fontSize=13;fontColor=#000000;strokeColor=#B5739D;edgeStyle=entityRelationEdgeStyle;strokeWidth=2;" parent="1" edge="1">
          <mxGeometry width="50" height="50" relative="1" as="geometry">
            <mxPoint x="3010" y="350" as="sourcePoint" />
            <mxPoint x="3070" y="1150" as="targetPoint" />
          </mxGeometry>
        </mxCell>
        <mxCell id="JOs6g6HiKCz4FtPnYZxF-150" value="" style="endArrow=none;html=1;labelBackgroundColor=none;fontSize=13;fontColor=#000000;strokeColor=#B5739D;edgeStyle=entityRelationEdgeStyle;strokeWidth=2;" parent="1" edge="1">
          <mxGeometry width="50" height="50" relative="1" as="geometry">
            <mxPoint x="3010" y="350" as="sourcePoint" />
            <mxPoint x="3070" y="1070" as="targetPoint" />
          </mxGeometry>
        </mxCell>
        <mxCell id="JOs6g6HiKCz4FtPnYZxF-143" value="" style="endArrow=none;html=1;labelBackgroundColor=none;fontSize=13;fontColor=#000000;strokeColor=#B5739D;edgeStyle=entityRelationEdgeStyle;strokeWidth=2;" parent="1" edge="1">
          <mxGeometry width="50" height="50" relative="1" as="geometry">
            <mxPoint x="2960" y="910" as="sourcePoint" />
            <mxPoint x="3020" y="950" as="targetPoint" />
          </mxGeometry>
        </mxCell>
        <mxCell id="JOs6g6HiKCz4FtPnYZxF-136" value="" style="endArrow=none;html=1;labelBackgroundColor=none;fontSize=13;fontColor=#000000;strokeColor=#B5739D;edgeStyle=entityRelationEdgeStyle;strokeWidth=2;" parent="1" edge="1">
          <mxGeometry width="50" height="50" relative="1" as="geometry">
            <mxPoint x="2750" y="310" as="sourcePoint" />
            <mxPoint x="2810" y="710" as="targetPoint" />
          </mxGeometry>
        </mxCell>
        <mxCell id="JOs6g6HiKCz4FtPnYZxF-137" value="" style="endArrow=none;html=1;labelBackgroundColor=none;fontSize=13;fontColor=#000000;strokeColor=#B5739D;edgeStyle=entityRelationEdgeStyle;strokeWidth=2;" parent="1" edge="1">
          <mxGeometry width="50" height="50" relative="1" as="geometry">
            <mxPoint x="2750" y="310" as="sourcePoint" />
            <mxPoint x="2810" y="750" as="targetPoint" />
          </mxGeometry>
        </mxCell>
        <mxCell id="JOs6g6HiKCz4FtPnYZxF-138" value="" style="endArrow=none;html=1;labelBackgroundColor=none;fontSize=13;fontColor=#000000;strokeColor=#B5739D;edgeStyle=entityRelationEdgeStyle;strokeWidth=2;" parent="1" edge="1">
          <mxGeometry width="50" height="50" relative="1" as="geometry">
            <mxPoint x="2750" y="310" as="sourcePoint" />
            <mxPoint x="2810" y="790" as="targetPoint" />
          </mxGeometry>
        </mxCell>
        <mxCell id="JOs6g6HiKCz4FtPnYZxF-139" value="" style="endArrow=none;html=1;labelBackgroundColor=none;fontSize=13;fontColor=#000000;strokeColor=#B5739D;edgeStyle=entityRelationEdgeStyle;strokeWidth=2;" parent="1" edge="1">
          <mxGeometry width="50" height="50" relative="1" as="geometry">
            <mxPoint x="2750" y="310" as="sourcePoint" />
            <mxPoint x="2810" y="830" as="targetPoint" />
          </mxGeometry>
        </mxCell>
        <mxCell id="JOs6g6HiKCz4FtPnYZxF-140" value="" style="endArrow=none;html=1;labelBackgroundColor=none;fontSize=13;fontColor=#000000;strokeColor=#B5739D;edgeStyle=entityRelationEdgeStyle;strokeWidth=2;" parent="1" edge="1">
          <mxGeometry width="50" height="50" relative="1" as="geometry">
            <mxPoint x="2750" y="310" as="sourcePoint" />
            <mxPoint x="2810" y="870" as="targetPoint" />
          </mxGeometry>
        </mxCell>
        <mxCell id="JOs6g6HiKCz4FtPnYZxF-130" value="" style="endArrow=none;html=1;labelBackgroundColor=none;fontSize=13;fontColor=#000000;strokeColor=#B5739D;edgeStyle=entityRelationEdgeStyle;strokeWidth=2;" parent="1" edge="1">
          <mxGeometry width="50" height="50" relative="1" as="geometry">
            <mxPoint x="2750" y="270" as="sourcePoint" />
            <mxPoint x="2810" y="670" as="targetPoint" />
          </mxGeometry>
        </mxCell>
        <mxCell id="JOs6g6HiKCz4FtPnYZxF-129" value="" style="endArrow=none;html=1;labelBackgroundColor=none;fontSize=13;fontColor=#000000;strokeColor=#B5739D;edgeStyle=entityRelationEdgeStyle;strokeWidth=2;" parent="1" edge="1">
          <mxGeometry width="50" height="50" relative="1" as="geometry">
            <mxPoint x="2750" y="310" as="sourcePoint" />
            <mxPoint x="2810" y="670" as="targetPoint" />
          </mxGeometry>
        </mxCell>
        <mxCell id="JOs6g6HiKCz4FtPnYZxF-123" value="" style="endArrow=none;html=1;labelBackgroundColor=none;fontSize=13;fontColor=#000000;strokeColor=#B5739D;edgeStyle=entityRelationEdgeStyle;strokeWidth=2;" parent="1" edge="1">
          <mxGeometry width="50" height="50" relative="1" as="geometry">
            <mxPoint x="1870" y="390" as="sourcePoint" />
            <mxPoint x="1930" y="510" as="targetPoint" />
          </mxGeometry>
        </mxCell>
        <mxCell id="JOs6g6HiKCz4FtPnYZxF-124" value="" style="endArrow=none;html=1;labelBackgroundColor=none;fontSize=13;fontColor=#000000;strokeColor=#B5739D;edgeStyle=entityRelationEdgeStyle;strokeWidth=2;" parent="1" edge="1">
          <mxGeometry width="50" height="50" relative="1" as="geometry">
            <mxPoint x="1870" y="430" as="sourcePoint" />
            <mxPoint x="1930" y="510" as="targetPoint" />
          </mxGeometry>
        </mxCell>
        <mxCell id="JOs6g6HiKCz4FtPnYZxF-117" value="" style="endArrow=none;html=1;labelBackgroundColor=none;fontSize=13;fontColor=#000000;strokeColor=#B5739D;edgeStyle=entityRelationEdgeStyle;strokeWidth=2;" parent="1" edge="1">
          <mxGeometry width="50" height="50" relative="1" as="geometry">
            <mxPoint x="1070" y="230" as="sourcePoint" />
            <mxPoint x="1130" y="350" as="targetPoint" />
          </mxGeometry>
        </mxCell>
        <mxCell id="JOs6g6HiKCz4FtPnYZxF-115" value="" style="endArrow=none;html=1;labelBackgroundColor=none;fontSize=13;fontColor=#000000;strokeColor=#B5739D;edgeStyle=entityRelationEdgeStyle;strokeWidth=2;" parent="1" edge="1">
          <mxGeometry width="50" height="50" relative="1" as="geometry">
            <mxPoint x="1070" y="190" as="sourcePoint" />
            <mxPoint x="1130" y="310" as="targetPoint" />
          </mxGeometry>
        </mxCell>
        <mxCell id="JOs6g6HiKCz4FtPnYZxF-2" value="" style="endArrow=none;html=1;labelBackgroundColor=none;fontSize=13;fontColor=#000000;strokeColor=#99CCFF;edgeStyle=entityRelationEdgeStyle;strokeWidth=2;" parent="1" edge="1">
          <mxGeometry width="50" height="50" relative="1" as="geometry">
            <mxPoint x="770" y="150" as="sourcePoint" />
            <mxPoint x="840" y="230" as="targetPoint" />
          </mxGeometry>
        </mxCell>
        <mxCell id="JOs6g6HiKCz4FtPnYZxF-3" style="edgeStyle=orthogonalEdgeStyle;rounded=0;orthogonalLoop=1;jettySize=auto;html=1;strokeColor=#B3B3B3;endArrow=none;endFill=0;exitX=0.5;exitY=1;exitDx=0;exitDy=0;" parent="1" source="JOs6g6HiKCz4FtPnYZxF-38" edge="1">
          <mxGeometry relative="1" as="geometry">
            <mxPoint x="90" y="1380" as="targetPoint" />
          </mxGeometry>
        </mxCell>
        <mxCell id="JOs6g6HiKCz4FtPnYZxF-4" style="edgeStyle=orthogonalEdgeStyle;rounded=0;orthogonalLoop=1;jettySize=auto;html=1;strokeColor=#B3B3B3;endArrow=none;endFill=0;exitX=0.5;exitY=1;exitDx=0;exitDy=0;" parent="1" source="JOs6g6HiKCz4FtPnYZxF-63" edge="1">
          <mxGeometry relative="1" as="geometry">
            <mxPoint x="1890" y="1380" as="targetPoint" />
            <mxPoint x="1920" y="110" as="sourcePoint" />
          </mxGeometry>
        </mxCell>
        <mxCell id="JOs6g6HiKCz4FtPnYZxF-5" style="edgeStyle=orthogonalEdgeStyle;rounded=0;orthogonalLoop=1;jettySize=auto;html=1;strokeColor=#B3B3B3;endArrow=none;endFill=0;exitX=0.5;exitY=1;exitDx=0;exitDy=0;" parent="1" source="JOs6g6HiKCz4FtPnYZxF-55" edge="1">
          <mxGeometry relative="1" as="geometry">
            <mxPoint x="2860" y="1380" as="targetPoint" />
            <mxPoint x="1909.5" y="60" as="sourcePoint" />
          </mxGeometry>
        </mxCell>
        <mxCell id="JOs6g6HiKCz4FtPnYZxF-6" style="edgeStyle=orthogonalEdgeStyle;rounded=0;orthogonalLoop=1;jettySize=auto;html=1;strokeColor=#B3B3B3;endArrow=none;endFill=0;exitX=0.5;exitY=1;exitDx=0;exitDy=0;" parent="1" source="JOs6g6HiKCz4FtPnYZxF-54" edge="1">
          <mxGeometry relative="1" as="geometry">
            <mxPoint x="2730" y="1380" as="targetPoint" />
            <mxPoint x="2730" y="60" as="sourcePoint" />
          </mxGeometry>
        </mxCell>
        <mxCell id="JOs6g6HiKCz4FtPnYZxF-7" style="edgeStyle=orthogonalEdgeStyle;rounded=0;orthogonalLoop=1;jettySize=auto;html=1;strokeColor=#B3B3B3;endArrow=none;endFill=0;exitX=0.5;exitY=1;exitDx=0;exitDy=0;" parent="1" source="JOs6g6HiKCz4FtPnYZxF-46" edge="1">
          <mxGeometry relative="1" as="geometry">
            <mxPoint x="2610" y="1380" as="targetPoint" />
            <mxPoint x="1749.5" y="60" as="sourcePoint" />
          </mxGeometry>
        </mxCell>
        <mxCell id="JOs6g6HiKCz4FtPnYZxF-8" style="edgeStyle=orthogonalEdgeStyle;rounded=0;orthogonalLoop=1;jettySize=auto;html=1;strokeColor=#B3B3B3;endArrow=none;endFill=0;exitX=0.5;exitY=1;exitDx=0;exitDy=0;" parent="1" source="JOs6g6HiKCz4FtPnYZxF-45" edge="1">
          <mxGeometry relative="1" as="geometry">
            <mxPoint x="2490" y="1380" as="targetPoint" />
            <mxPoint x="2530" y="110" as="sourcePoint" />
          </mxGeometry>
        </mxCell>
        <mxCell id="JOs6g6HiKCz4FtPnYZxF-9" style="edgeStyle=orthogonalEdgeStyle;rounded=0;orthogonalLoop=1;jettySize=auto;html=1;strokeColor=#B3B3B3;endArrow=none;endFill=0;exitX=0.5;exitY=1;exitDx=0;exitDy=0;" parent="1" source="JOs6g6HiKCz4FtPnYZxF-47" edge="1">
          <mxGeometry relative="1" as="geometry">
            <mxPoint x="2370" y="1380" as="targetPoint" />
            <mxPoint x="2400" y="120" as="sourcePoint" />
          </mxGeometry>
        </mxCell>
        <mxCell id="JOs6g6HiKCz4FtPnYZxF-10" style="edgeStyle=orthogonalEdgeStyle;rounded=0;orthogonalLoop=1;jettySize=auto;html=1;strokeColor=#B3B3B3;endArrow=none;endFill=0;exitX=0.5;exitY=1;exitDx=0;exitDy=0;" parent="1" source="JOs6g6HiKCz4FtPnYZxF-50" edge="1">
          <mxGeometry relative="1" as="geometry">
            <mxPoint x="2010" y="1380" as="targetPoint" />
            <mxPoint x="2030" y="90" as="sourcePoint" />
          </mxGeometry>
        </mxCell>
        <mxCell id="JOs6g6HiKCz4FtPnYZxF-11" style="edgeStyle=orthogonalEdgeStyle;rounded=0;orthogonalLoop=1;jettySize=auto;html=1;strokeColor=#B3B3B3;endArrow=none;endFill=0;exitX=0.5;exitY=1;exitDx=0;exitDy=0;" parent="1" source="JOs6g6HiKCz4FtPnYZxF-49" edge="1">
          <mxGeometry relative="1" as="geometry">
            <mxPoint x="2130" y="1380" as="targetPoint" />
            <mxPoint x="2160" y="120" as="sourcePoint" />
          </mxGeometry>
        </mxCell>
        <mxCell id="JOs6g6HiKCz4FtPnYZxF-12" style="edgeStyle=orthogonalEdgeStyle;rounded=0;orthogonalLoop=1;jettySize=auto;html=1;strokeColor=#B3B3B3;endArrow=none;endFill=0;exitX=0.5;exitY=1;exitDx=0;exitDy=0;" parent="1" source="JOs6g6HiKCz4FtPnYZxF-48" edge="1">
          <mxGeometry relative="1" as="geometry">
            <mxPoint x="2250" y="1380" as="targetPoint" />
            <mxPoint x="2280" y="120" as="sourcePoint" />
          </mxGeometry>
        </mxCell>
        <mxCell id="JOs6g6HiKCz4FtPnYZxF-13" style="edgeStyle=orthogonalEdgeStyle;rounded=0;orthogonalLoop=1;jettySize=auto;html=1;strokeColor=#B3B3B3;endArrow=none;endFill=0;exitX=0.5;exitY=1;exitDx=0;exitDy=0;" parent="1" source="JOs6g6HiKCz4FtPnYZxF-71" edge="1">
          <mxGeometry relative="1" as="geometry">
            <mxPoint x="330" y="1380" as="targetPoint" />
            <mxPoint x="229.5" y="60" as="sourcePoint" />
          </mxGeometry>
        </mxCell>
        <mxCell id="JOs6g6HiKCz4FtPnYZxF-14" style="edgeStyle=orthogonalEdgeStyle;rounded=0;orthogonalLoop=1;jettySize=auto;html=1;strokeColor=#B3B3B3;endArrow=none;endFill=0;exitX=0.5;exitY=1;exitDx=0;exitDy=0;" parent="1" source="JOs6g6HiKCz4FtPnYZxF-64" edge="1">
          <mxGeometry relative="1" as="geometry">
            <mxPoint x="1770" y="1380.7692307692307" as="targetPoint" />
            <mxPoint x="1800" y="110" as="sourcePoint" />
          </mxGeometry>
        </mxCell>
        <mxCell id="JOs6g6HiKCz4FtPnYZxF-15" style="edgeStyle=orthogonalEdgeStyle;rounded=0;orthogonalLoop=1;jettySize=auto;html=1;strokeColor=#B3B3B3;endArrow=none;endFill=0;exitX=0.5;exitY=1;exitDx=0;exitDy=0;" parent="1" source="JOs6g6HiKCz4FtPnYZxF-65" edge="1">
          <mxGeometry relative="1" as="geometry">
            <mxPoint x="1650" y="1380" as="targetPoint" />
            <mxPoint x="1670" y="120" as="sourcePoint" />
          </mxGeometry>
        </mxCell>
        <mxCell id="JOs6g6HiKCz4FtPnYZxF-16" style="edgeStyle=orthogonalEdgeStyle;rounded=0;orthogonalLoop=1;jettySize=auto;html=1;strokeColor=#B3B3B3;endArrow=none;endFill=0;exitX=0.5;exitY=1;exitDx=0;exitDy=0;" parent="1" source="JOs6g6HiKCz4FtPnYZxF-66" edge="1">
          <mxGeometry relative="1" as="geometry">
            <mxPoint x="1530" y="1380.7692307692307" as="targetPoint" />
            <mxPoint x="1550" y="110" as="sourcePoint" />
          </mxGeometry>
        </mxCell>
        <mxCell id="JOs6g6HiKCz4FtPnYZxF-17" style="edgeStyle=orthogonalEdgeStyle;rounded=0;orthogonalLoop=1;jettySize=auto;html=1;strokeColor=#B3B3B3;endArrow=none;endFill=0;exitX=0.5;exitY=1;exitDx=0;exitDy=0;" parent="1" source="JOs6g6HiKCz4FtPnYZxF-67" edge="1">
          <mxGeometry relative="1" as="geometry">
            <mxPoint x="1410" y="1380" as="targetPoint" />
            <mxPoint x="1440" y="120" as="sourcePoint" />
          </mxGeometry>
        </mxCell>
        <mxCell id="JOs6g6HiKCz4FtPnYZxF-18" style="edgeStyle=orthogonalEdgeStyle;rounded=0;orthogonalLoop=1;jettySize=auto;html=1;strokeColor=#B3B3B3;endArrow=none;endFill=0;exitX=0.5;exitY=1;exitDx=0;exitDy=0;" parent="1" source="JOs6g6HiKCz4FtPnYZxF-62" edge="1">
          <mxGeometry relative="1" as="geometry">
            <mxPoint x="1290" y="1380" as="targetPoint" />
            <mxPoint x="1320" y="110" as="sourcePoint" />
          </mxGeometry>
        </mxCell>
        <mxCell id="JOs6g6HiKCz4FtPnYZxF-19" style="edgeStyle=orthogonalEdgeStyle;rounded=0;orthogonalLoop=1;jettySize=auto;html=1;strokeColor=#B3B3B3;endArrow=none;endFill=0;exitX=0.5;exitY=1;exitDx=0;exitDy=0;" parent="1" source="JOs6g6HiKCz4FtPnYZxF-61" edge="1">
          <mxGeometry relative="1" as="geometry">
            <mxPoint x="1170" y="1380" as="targetPoint" />
            <mxPoint x="1190" y="110" as="sourcePoint" />
            <Array as="points">
              <mxPoint x="1170" y="560" />
              <mxPoint x="1170" y="560" />
            </Array>
          </mxGeometry>
        </mxCell>
        <mxCell id="JOs6g6HiKCz4FtPnYZxF-20" style="edgeStyle=orthogonalEdgeStyle;rounded=0;orthogonalLoop=1;jettySize=auto;html=1;strokeColor=#B3B3B3;endArrow=none;endFill=0;exitX=0.5;exitY=1;exitDx=0;exitDy=0;" parent="1" source="JOs6g6HiKCz4FtPnYZxF-60" edge="1">
          <mxGeometry relative="1" as="geometry">
            <mxPoint x="1050" y="1380" as="targetPoint" />
            <mxPoint x="1080" y="150" as="sourcePoint" />
          </mxGeometry>
        </mxCell>
        <mxCell id="JOs6g6HiKCz4FtPnYZxF-21" style="edgeStyle=orthogonalEdgeStyle;rounded=0;orthogonalLoop=1;jettySize=auto;html=1;strokeColor=#B3B3B3;endArrow=none;endFill=0;exitX=0.5;exitY=1;exitDx=0;exitDy=0;" parent="1" source="JOs6g6HiKCz4FtPnYZxF-59" edge="1">
          <mxGeometry relative="1" as="geometry">
            <mxPoint x="930" y="1380" as="targetPoint" />
            <mxPoint x="950" y="110" as="sourcePoint" />
          </mxGeometry>
        </mxCell>
        <mxCell id="JOs6g6HiKCz4FtPnYZxF-22" style="edgeStyle=orthogonalEdgeStyle;rounded=0;orthogonalLoop=1;jettySize=auto;html=1;strokeColor=#B3B3B3;endArrow=none;endFill=0;exitX=0.5;exitY=1;exitDx=0;exitDy=0;" parent="1" source="JOs6g6HiKCz4FtPnYZxF-58" edge="1">
          <mxGeometry relative="1" as="geometry">
            <mxPoint x="810" y="1380" as="targetPoint" />
            <mxPoint x="549.5" y="60" as="sourcePoint" />
          </mxGeometry>
        </mxCell>
        <mxCell id="JOs6g6HiKCz4FtPnYZxF-23" style="edgeStyle=orthogonalEdgeStyle;rounded=0;orthogonalLoop=1;jettySize=auto;html=1;strokeColor=#B3B3B3;endArrow=none;endFill=0;exitX=0.5;exitY=1;exitDx=0;exitDy=0;" parent="1" source="JOs6g6HiKCz4FtPnYZxF-70" edge="1">
          <mxGeometry relative="1" as="geometry">
            <mxPoint x="690" y="1380" as="targetPoint" />
            <mxPoint x="469.5" y="60" as="sourcePoint" />
          </mxGeometry>
        </mxCell>
        <mxCell id="JOs6g6HiKCz4FtPnYZxF-24" style="edgeStyle=orthogonalEdgeStyle;rounded=0;orthogonalLoop=1;jettySize=auto;html=1;strokeColor=#B3B3B3;endArrow=none;endFill=0;exitX=0.5;exitY=1;exitDx=0;exitDy=0;" parent="1" source="JOs6g6HiKCz4FtPnYZxF-68" edge="1">
          <mxGeometry relative="1" as="geometry">
            <mxPoint x="450" y="1380" as="targetPoint" />
            <mxPoint x="389.5" y="60" as="sourcePoint" />
          </mxGeometry>
        </mxCell>
        <mxCell id="JOs6g6HiKCz4FtPnYZxF-25" style="edgeStyle=orthogonalEdgeStyle;rounded=0;orthogonalLoop=1;jettySize=auto;html=1;strokeColor=#B3B3B3;endArrow=none;endFill=0;exitX=0.5;exitY=1;exitDx=0;exitDy=0;" parent="1" source="JOs6g6HiKCz4FtPnYZxF-69" edge="1">
          <mxGeometry relative="1" as="geometry">
            <mxPoint x="570" y="1381.5384615384614" as="targetPoint" />
            <mxPoint x="320" y="130" as="sourcePoint" />
          </mxGeometry>
        </mxCell>
        <mxCell id="JOs6g6HiKCz4FtPnYZxF-26" style="edgeStyle=orthogonalEdgeStyle;rounded=0;orthogonalLoop=1;jettySize=auto;html=1;strokeColor=#B3B3B3;endArrow=none;endFill=0;exitX=0.5;exitY=1;exitDx=0;exitDy=0;" parent="1" source="JOs6g6HiKCz4FtPnYZxF-42" edge="1">
          <mxGeometry relative="1" as="geometry">
            <mxPoint x="3570" y="1380" as="targetPoint" />
            <mxPoint x="2389.5" y="60" as="sourcePoint" />
          </mxGeometry>
        </mxCell>
        <mxCell id="JOs6g6HiKCz4FtPnYZxF-27" style="edgeStyle=orthogonalEdgeStyle;rounded=0;orthogonalLoop=1;jettySize=auto;html=1;strokeColor=#B3B3B3;endArrow=none;endFill=0;exitX=0.5;exitY=1;exitDx=0;exitDy=0;" parent="1" source="JOs6g6HiKCz4FtPnYZxF-51" edge="1">
          <mxGeometry relative="1" as="geometry">
            <mxPoint x="3450" y="1380" as="targetPoint" />
            <mxPoint x="2309.5" y="60" as="sourcePoint" />
          </mxGeometry>
        </mxCell>
        <mxCell id="JOs6g6HiKCz4FtPnYZxF-28" style="edgeStyle=orthogonalEdgeStyle;rounded=0;orthogonalLoop=1;jettySize=auto;html=1;strokeColor=#B3B3B3;endArrow=none;endFill=0;exitX=0.5;exitY=1;exitDx=0;exitDy=0;" parent="1" source="JOs6g6HiKCz4FtPnYZxF-52" edge="1">
          <mxGeometry relative="1" as="geometry">
            <mxPoint x="3330" y="1380" as="targetPoint" />
            <mxPoint x="3340" y="100" as="sourcePoint" />
          </mxGeometry>
        </mxCell>
        <mxCell id="JOs6g6HiKCz4FtPnYZxF-29" style="edgeStyle=orthogonalEdgeStyle;rounded=0;orthogonalLoop=1;jettySize=auto;html=1;strokeColor=#B3B3B3;endArrow=none;endFill=0;exitX=0.5;exitY=1;exitDx=0;exitDy=0;" parent="1" source="JOs6g6HiKCz4FtPnYZxF-57" edge="1">
          <mxGeometry relative="1" as="geometry">
            <mxPoint x="2970" y="1380" as="targetPoint" />
            <mxPoint x="1989.5" y="60" as="sourcePoint" />
          </mxGeometry>
        </mxCell>
        <mxCell id="JOs6g6HiKCz4FtPnYZxF-30" style="edgeStyle=orthogonalEdgeStyle;rounded=0;orthogonalLoop=1;jettySize=auto;html=1;strokeColor=#B3B3B3;endArrow=none;endFill=0;exitX=0.5;exitY=1;exitDx=0;exitDy=0;" parent="1" source="JOs6g6HiKCz4FtPnYZxF-56" edge="1">
          <mxGeometry relative="1" as="geometry">
            <mxPoint x="3090" y="1380" as="targetPoint" />
            <mxPoint x="3110" y="100" as="sourcePoint" />
          </mxGeometry>
        </mxCell>
        <mxCell id="JOs6g6HiKCz4FtPnYZxF-31" style="edgeStyle=orthogonalEdgeStyle;rounded=0;orthogonalLoop=1;jettySize=auto;html=1;strokeColor=#B3B3B3;endArrow=none;endFill=0;exitX=0.5;exitY=1;exitDx=0;exitDy=0;" parent="1" source="JOs6g6HiKCz4FtPnYZxF-53" edge="1">
          <mxGeometry relative="1" as="geometry">
            <mxPoint x="3210" y="1380" as="targetPoint" />
            <mxPoint x="3230" y="100" as="sourcePoint" />
          </mxGeometry>
        </mxCell>
        <mxCell id="JOs6g6HiKCz4FtPnYZxF-32" style="edgeStyle=orthogonalEdgeStyle;rounded=0;orthogonalLoop=1;jettySize=auto;html=1;strokeColor=#B3B3B3;endArrow=none;endFill=0;exitX=0.5;exitY=1;exitDx=0;exitDy=0;" parent="1" source="JOs6g6HiKCz4FtPnYZxF-40" edge="1">
          <mxGeometry relative="1" as="geometry">
            <mxPoint x="3690" y="1380" as="targetPoint" />
            <mxPoint x="3720" y="130" as="sourcePoint" />
          </mxGeometry>
        </mxCell>
        <mxCell id="JOs6g6HiKCz4FtPnYZxF-33" style="edgeStyle=orthogonalEdgeStyle;rounded=0;orthogonalLoop=1;jettySize=auto;html=1;strokeColor=#B3B3B3;endArrow=none;endFill=0;exitX=0.5;exitY=1;exitDx=0;exitDy=0;" parent="1" source="JOs6g6HiKCz4FtPnYZxF-41" edge="1">
          <mxGeometry relative="1" as="geometry">
            <mxPoint x="3810" y="1380" as="targetPoint" />
            <mxPoint x="3830" y="100" as="sourcePoint" />
          </mxGeometry>
        </mxCell>
        <mxCell id="JOs6g6HiKCz4FtPnYZxF-34" style="edgeStyle=orthogonalEdgeStyle;rounded=0;orthogonalLoop=1;jettySize=auto;html=1;strokeColor=#B3B3B3;endArrow=none;endFill=0;exitX=0.5;exitY=1;exitDx=0;exitDy=0;" parent="1" source="JOs6g6HiKCz4FtPnYZxF-44" edge="1">
          <mxGeometry relative="1" as="geometry">
            <mxPoint x="4050" y="1380" as="targetPoint" />
            <mxPoint x="2630" y="60" as="sourcePoint" />
          </mxGeometry>
        </mxCell>
        <mxCell id="JOs6g6HiKCz4FtPnYZxF-35" style="edgeStyle=orthogonalEdgeStyle;rounded=0;orthogonalLoop=1;jettySize=auto;html=1;strokeColor=#B3B3B3;endArrow=none;endFill=0;exitX=0.5;exitY=1;exitDx=0;exitDy=0;" parent="1" source="JOs6g6HiKCz4FtPnYZxF-43" edge="1">
          <mxGeometry relative="1" as="geometry">
            <mxPoint x="3930" y="1380" as="targetPoint" />
            <mxPoint x="2709.5" y="60" as="sourcePoint" />
          </mxGeometry>
        </mxCell>
        <mxCell id="JOs6g6HiKCz4FtPnYZxF-36" style="edgeStyle=orthogonalEdgeStyle;rounded=0;orthogonalLoop=1;jettySize=auto;html=1;strokeColor=#B3B3B3;endArrow=none;endFill=0;exitX=0.5;exitY=1;exitDx=0;exitDy=0;" parent="1" source="JOs6g6HiKCz4FtPnYZxF-39" edge="1">
          <mxGeometry relative="1" as="geometry">
            <mxPoint x="210" y="1380" as="targetPoint" />
            <mxPoint x="150" y="60" as="sourcePoint" />
          </mxGeometry>
        </mxCell>
        <mxCell id="JOs6g6HiKCz4FtPnYZxF-37" value="" style="rounded=1;whiteSpace=wrap;html=1;fillColor=#7EA6E0;strokeColor=none;gradientColor=#D4E1F5;gradientDirection=east;fontSize=15;" parent="1" vertex="1">
          <mxGeometry x="10" y="10" width="4120" height="60" as="geometry" />
        </mxCell>
        <mxCell id="JOs6g6HiKCz4FtPnYZxF-38" value="1991" style="rounded=0;whiteSpace=wrap;html=1;fillColor=none;fontColor=#FFFFFF;fontSize=15;fontStyle=1;strokeColor=none;" parent="1" vertex="1">
          <mxGeometry x="30" y="20" width="120" height="40" as="geometry" />
        </mxCell>
        <mxCell id="JOs6g6HiKCz4FtPnYZxF-39" value="1992" style="rounded=0;whiteSpace=wrap;html=1;fillColor=none;fontColor=#FFFFFF;fontSize=15;fontStyle=1;strokeColor=none;" parent="1" vertex="1">
          <mxGeometry x="150" y="20" width="120" height="40" as="geometry" />
        </mxCell>
        <mxCell id="JOs6g6HiKCz4FtPnYZxF-40" value="2021" style="rounded=0;whiteSpace=wrap;html=1;fillColor=none;fontColor=#FFFFFF;fontSize=15;fontStyle=1;strokeColor=none;" parent="1" vertex="1">
          <mxGeometry x="3630" y="20" width="120" height="40" as="geometry" />
        </mxCell>
        <mxCell id="JOs6g6HiKCz4FtPnYZxF-41" value="2022" style="rounded=0;whiteSpace=wrap;html=1;fillColor=none;fontColor=#FFFFFF;fontSize=15;fontStyle=1;strokeColor=none;" parent="1" vertex="1">
          <mxGeometry x="3750" y="20" width="120" height="40" as="geometry" />
        </mxCell>
        <mxCell id="JOs6g6HiKCz4FtPnYZxF-42" value="2020" style="rounded=0;whiteSpace=wrap;html=1;fillColor=none;fontColor=#FFFFFF;fontSize=15;fontStyle=1;strokeColor=none;" parent="1" vertex="1">
          <mxGeometry x="3510" y="20" width="120" height="40" as="geometry" />
        </mxCell>
        <mxCell id="JOs6g6HiKCz4FtPnYZxF-43" value="2023" style="rounded=0;whiteSpace=wrap;html=1;fillColor=none;fontColor=#FFFFFF;fontSize=15;fontStyle=1;strokeColor=none;" parent="1" vertex="1">
          <mxGeometry x="3870" y="20" width="120" height="40" as="geometry" />
        </mxCell>
        <mxCell id="JOs6g6HiKCz4FtPnYZxF-44" value="2024" style="rounded=0;whiteSpace=wrap;html=1;fillColor=none;fontColor=#FFFFFF;fontSize=15;fontStyle=1;strokeColor=none;" parent="1" vertex="1">
          <mxGeometry x="3990" y="20" width="120" height="40" as="geometry" />
        </mxCell>
        <mxCell id="JOs6g6HiKCz4FtPnYZxF-45" value="2011" style="rounded=0;whiteSpace=wrap;html=1;fillColor=none;fontColor=#FFFFFF;fontSize=15;fontStyle=1;strokeColor=none;" parent="1" vertex="1">
          <mxGeometry x="2430" y="20" width="120" height="40" as="geometry" />
        </mxCell>
        <mxCell id="JOs6g6HiKCz4FtPnYZxF-46" value="2012" style="rounded=0;whiteSpace=wrap;html=1;fillColor=none;fontColor=#FFFFFF;fontSize=15;fontStyle=1;strokeColor=none;" parent="1" vertex="1">
          <mxGeometry x="2550" y="20" width="120" height="40" as="geometry" />
        </mxCell>
        <mxCell id="JOs6g6HiKCz4FtPnYZxF-47" value="2010" style="rounded=0;whiteSpace=wrap;html=1;fillColor=none;fontColor=#FFFFFF;fontSize=15;fontStyle=1;strokeColor=none;" parent="1" vertex="1">
          <mxGeometry x="2310" y="20" width="120" height="40" as="geometry" />
        </mxCell>
        <mxCell id="JOs6g6HiKCz4FtPnYZxF-48" value="2009" style="rounded=0;whiteSpace=wrap;html=1;fillColor=none;fontColor=#FFFFFF;fontSize=15;fontStyle=1;strokeColor=none;" parent="1" vertex="1">
          <mxGeometry x="2190" y="20" width="120" height="40" as="geometry" />
        </mxCell>
        <mxCell id="JOs6g6HiKCz4FtPnYZxF-49" value="2008" style="rounded=0;whiteSpace=wrap;html=1;fillColor=none;fontColor=#FFFFFF;fontSize=15;fontStyle=1;strokeColor=none;" parent="1" vertex="1">
          <mxGeometry x="2070" y="20" width="120" height="40" as="geometry" />
        </mxCell>
        <mxCell id="JOs6g6HiKCz4FtPnYZxF-50" value="2007" style="rounded=0;whiteSpace=wrap;html=1;fillColor=none;fontColor=#FFFFFF;fontSize=15;fontStyle=1;strokeColor=none;" parent="1" vertex="1">
          <mxGeometry x="1950" y="20" width="120" height="40" as="geometry" />
        </mxCell>
        <mxCell id="JOs6g6HiKCz4FtPnYZxF-51" value="2019" style="rounded=0;whiteSpace=wrap;html=1;fillColor=none;fontColor=#FFFFFF;fontSize=15;fontStyle=1;strokeColor=none;" parent="1" vertex="1">
          <mxGeometry x="3390" y="20" width="120" height="40" as="geometry" />
        </mxCell>
        <mxCell id="JOs6g6HiKCz4FtPnYZxF-52" value="2018" style="rounded=0;whiteSpace=wrap;html=1;fillColor=none;fontColor=#FFFFFF;fontSize=15;fontStyle=1;strokeColor=none;" parent="1" vertex="1">
          <mxGeometry x="3270" y="20" width="120" height="40" as="geometry" />
        </mxCell>
        <mxCell id="JOs6g6HiKCz4FtPnYZxF-53" value="2017" style="rounded=0;whiteSpace=wrap;html=1;fillColor=none;fontColor=#FFFFFF;fontSize=15;fontStyle=1;strokeColor=none;" parent="1" vertex="1">
          <mxGeometry x="3150" y="20" width="120" height="40" as="geometry" />
        </mxCell>
        <mxCell id="JOs6g6HiKCz4FtPnYZxF-54" value="2013" style="rounded=0;whiteSpace=wrap;html=1;fillColor=none;fontColor=#FFFFFF;fontSize=15;fontStyle=1;strokeColor=none;" parent="1" vertex="1">
          <mxGeometry x="2670" y="20" width="120" height="40" as="geometry" />
        </mxCell>
        <mxCell id="JOs6g6HiKCz4FtPnYZxF-55" value="2014" style="rounded=0;whiteSpace=wrap;html=1;fillColor=none;fontColor=#FFFFFF;fontSize=15;fontStyle=1;strokeColor=none;" parent="1" vertex="1">
          <mxGeometry x="2790" y="20" width="120" height="40" as="geometry" />
        </mxCell>
        <mxCell id="JOs6g6HiKCz4FtPnYZxF-56" value="2016" style="rounded=0;whiteSpace=wrap;html=1;fillColor=none;fontColor=#FFFFFF;fontSize=15;fontStyle=1;strokeColor=none;" parent="1" vertex="1">
          <mxGeometry x="3030" y="20" width="120" height="40" as="geometry" />
        </mxCell>
        <mxCell id="JOs6g6HiKCz4FtPnYZxF-57" value="2015" style="rounded=0;whiteSpace=wrap;html=1;fillColor=none;fontColor=#FFFFFF;fontSize=15;fontStyle=1;strokeColor=none;" parent="1" vertex="1">
          <mxGeometry x="2910" y="20" width="120" height="40" as="geometry" />
        </mxCell>
        <mxCell id="JOs6g6HiKCz4FtPnYZxF-58" value="1997" style="rounded=0;whiteSpace=wrap;html=1;fillColor=none;fontColor=#FFFFFF;fontSize=15;fontStyle=1;strokeColor=none;" parent="1" vertex="1">
          <mxGeometry x="750" y="20" width="120" height="40" as="geometry" />
        </mxCell>
        <mxCell id="JOs6g6HiKCz4FtPnYZxF-59" value="1998" style="rounded=0;whiteSpace=wrap;html=1;fillColor=none;fontColor=#FFFFFF;fontSize=15;fontStyle=1;strokeColor=none;" parent="1" vertex="1">
          <mxGeometry x="870" y="20" width="120" height="40" as="geometry" />
        </mxCell>
        <mxCell id="JOs6g6HiKCz4FtPnYZxF-60" value="1999" style="rounded=0;whiteSpace=wrap;html=1;fillColor=none;fontColor=#FFFFFF;fontSize=15;fontStyle=1;strokeColor=none;" parent="1" vertex="1">
          <mxGeometry x="990" y="20" width="120" height="40" as="geometry" />
        </mxCell>
        <mxCell id="JOs6g6HiKCz4FtPnYZxF-61" value="2000" style="rounded=0;whiteSpace=wrap;html=1;fillColor=none;fontColor=#FFFFFF;fontSize=15;fontStyle=1;strokeColor=none;" parent="1" vertex="1">
          <mxGeometry x="1110" y="20" width="120" height="40" as="geometry" />
        </mxCell>
        <mxCell id="JOs6g6HiKCz4FtPnYZxF-62" value="2001" style="rounded=0;whiteSpace=wrap;html=1;fillColor=none;fontColor=#FFFFFF;fontSize=15;fontStyle=1;strokeColor=none;" parent="1" vertex="1">
          <mxGeometry x="1230" y="20" width="120" height="40" as="geometry" />
        </mxCell>
        <mxCell id="JOs6g6HiKCz4FtPnYZxF-63" value="2006" style="rounded=0;whiteSpace=wrap;html=1;fillColor=none;fontColor=#FFFFFF;fontSize=15;fontStyle=1;strokeColor=none;" parent="1" vertex="1">
          <mxGeometry x="1830" y="20" width="120" height="40" as="geometry" />
        </mxCell>
        <mxCell id="JOs6g6HiKCz4FtPnYZxF-64" value="2005" style="rounded=0;whiteSpace=wrap;html=1;fillColor=none;fontColor=#FFFFFF;fontSize=15;fontStyle=1;strokeColor=none;" parent="1" vertex="1">
          <mxGeometry x="1710" y="20" width="120" height="40" as="geometry" />
        </mxCell>
        <mxCell id="JOs6g6HiKCz4FtPnYZxF-65" value="2004" style="rounded=0;whiteSpace=wrap;html=1;fillColor=none;fontColor=#FFFFFF;fontSize=15;fontStyle=1;strokeColor=none;" parent="1" vertex="1">
          <mxGeometry x="1590" y="20" width="120" height="40" as="geometry" />
        </mxCell>
        <mxCell id="JOs6g6HiKCz4FtPnYZxF-66" value="2003" style="rounded=0;whiteSpace=wrap;html=1;fillColor=none;fontColor=#FFFFFF;fontSize=15;fontStyle=1;strokeColor=none;" parent="1" vertex="1">
          <mxGeometry x="1470" y="20" width="120" height="40" as="geometry" />
        </mxCell>
        <mxCell id="JOs6g6HiKCz4FtPnYZxF-67" value="2002" style="rounded=0;whiteSpace=wrap;html=1;fillColor=none;fontColor=#FFFFFF;fontSize=15;fontStyle=1;strokeColor=none;" parent="1" vertex="1">
          <mxGeometry x="1350" y="20" width="120" height="40" as="geometry" />
        </mxCell>
        <mxCell id="JOs6g6HiKCz4FtPnYZxF-68" value="1994" style="rounded=0;whiteSpace=wrap;html=1;fillColor=none;fontColor=#FFFFFF;fontSize=15;fontStyle=1;strokeColor=none;" parent="1" vertex="1">
          <mxGeometry x="390" y="20" width="120" height="40" as="geometry" />
        </mxCell>
        <mxCell id="JOs6g6HiKCz4FtPnYZxF-69" value="1995" style="rounded=0;whiteSpace=wrap;html=1;fillColor=none;fontColor=#FFFFFF;fontSize=15;fontStyle=1;strokeColor=none;" parent="1" vertex="1">
          <mxGeometry x="510" y="20" width="120" height="40" as="geometry" />
        </mxCell>
        <mxCell id="JOs6g6HiKCz4FtPnYZxF-70" value="1996" style="rounded=0;whiteSpace=wrap;html=1;fillColor=none;fontColor=#FFFFFF;fontSize=15;fontStyle=1;strokeColor=none;" parent="1" vertex="1">
          <mxGeometry x="630" y="20" width="120" height="40" as="geometry" />
        </mxCell>
        <mxCell id="JOs6g6HiKCz4FtPnYZxF-71" value="1993" style="rounded=0;whiteSpace=wrap;html=1;fillColor=none;fontColor=#FFFFFF;fontSize=15;fontStyle=1;strokeColor=none;" parent="1" vertex="1">
          <mxGeometry x="270" y="20" width="120" height="40" as="geometry" />
        </mxCell>
        <mxCell id="JOs6g6HiKCz4FtPnYZxF-72" value="" style="endArrow=none;html=1;labelBackgroundColor=none;fontSize=13;fontColor=#000000;strokeColor=#99CCFF;edgeStyle=entityRelationEdgeStyle;strokeWidth=2;" parent="1" edge="1">
          <mxGeometry width="50" height="50" relative="1" as="geometry">
            <mxPoint x="690" y="110" as="sourcePoint" />
            <mxPoint x="760" y="150" as="targetPoint" />
          </mxGeometry>
        </mxCell>
        <mxCell id="JOs6g6HiKCz4FtPnYZxF-73" value="&lt;span style=&quot;&quot;&gt;HTTP/0.9&lt;/span&gt;" style="endArrow=none;html=1;rounded=0;fontSize=13;fontColor=#000000;strokeColor=#FF6666;startArrow=oval;startFill=1;labelBackgroundColor=none;fontStyle=1;strokeWidth=2;align=left;verticalAlign=bottom;" parent="1" edge="1">
          <mxGeometry x="-0.9899" width="50" height="50" relative="1" as="geometry">
            <mxPoint x="160" y="110" as="sourcePoint" />
            <mxPoint x="4129.999999999999" y="110" as="targetPoint" />
            <mxPoint as="offset" />
          </mxGeometry>
        </mxCell>
        <mxCell id="JOs6g6HiKCz4FtPnYZxF-76" value="RFC 1945 - HTTP/1.0" style="endArrow=none;html=1;rounded=0;fontSize=13;fontColor=#000000;strokeColor=#99CCFF;startArrow=oval;startFill=1;labelBackgroundColor=none;fontStyle=1;strokeWidth=2;align=left;verticalAlign=bottom;" parent="1" edge="1">
          <mxGeometry x="-0.9882" width="50" height="50" relative="1" as="geometry">
            <mxPoint x="740" y="150" as="sourcePoint" />
            <mxPoint x="4129.999999999999" y="150" as="targetPoint" />
            <mxPoint as="offset" />
          </mxGeometry>
        </mxCell>
        <mxCell id="JOs6g6HiKCz4FtPnYZxF-107" value="" style="endArrow=none;html=1;labelBackgroundColor=none;fontSize=13;fontColor=#000000;strokeColor=#99CCFF;edgeStyle=entityRelationEdgeStyle;strokeWidth=2;" parent="1" edge="1">
          <mxGeometry width="50" height="50" relative="1" as="geometry">
            <mxPoint x="770" y="150" as="sourcePoint" />
            <mxPoint x="840" y="190" as="targetPoint" />
          </mxGeometry>
        </mxCell>
        <mxCell id="JOs6g6HiKCz4FtPnYZxF-111" value="RFC 2069 - An Extension to HTTP : Digest Access Authentication" style="endArrow=none;html=1;rounded=0;fontSize=13;fontColor=#000000;strokeColor=#B5739D;startArrow=oval;startFill=1;labelBackgroundColor=none;fontStyle=1;strokeWidth=2;align=left;verticalAlign=bottom;" parent="1" edge="1">
          <mxGeometry x="-0.9882" width="50" height="50" relative="1" as="geometry">
            <mxPoint x="820" y="230" as="sourcePoint" />
            <mxPoint x="4130" y="230" as="targetPoint" />
            <mxPoint as="offset" />
          </mxGeometry>
        </mxCell>
        <mxCell id="JOs6g6HiKCz4FtPnYZxF-112" value="RFC 2068 - HTTP/1.1" style="endArrow=none;html=1;rounded=0;fontSize=13;fontColor=#000000;strokeColor=#B5739D;startArrow=oval;startFill=1;labelBackgroundColor=none;fontStyle=1;strokeWidth=2;align=left;verticalAlign=bottom;" parent="1" edge="1">
          <mxGeometry x="-0.9882" width="50" height="50" relative="1" as="geometry">
            <mxPoint x="820" y="190" as="sourcePoint" />
            <mxPoint x="4130" y="190" as="targetPoint" />
            <mxPoint as="offset" />
          </mxGeometry>
        </mxCell>
        <mxCell id="JOs6g6HiKCz4FtPnYZxF-113" value="RFC 2145 - Use and Interpretation of HTTP Version Numbers " style="endArrow=none;html=1;rounded=0;fontSize=13;fontColor=#000000;strokeColor=#B5739D;startArrow=oval;startFill=1;labelBackgroundColor=none;fontStyle=1;strokeWidth=2;align=left;verticalAlign=bottom;" parent="1" edge="1">
          <mxGeometry x="-0.9882" width="50" height="50" relative="1" as="geometry">
            <mxPoint x="860" y="270" as="sourcePoint" />
            <mxPoint x="4130" y="270" as="targetPoint" />
            <mxPoint as="offset" />
          </mxGeometry>
        </mxCell>
        <mxCell id="JOs6g6HiKCz4FtPnYZxF-114" value="RFC 2616 - HTTP/1.1" style="endArrow=none;html=1;rounded=0;fontSize=13;fontColor=#000000;strokeColor=#B5739D;startArrow=oval;startFill=1;labelBackgroundColor=none;fontStyle=1;strokeWidth=2;align=left;verticalAlign=bottom;" parent="1" edge="1">
          <mxGeometry x="-0.9868" width="50" height="50" relative="1" as="geometry">
            <mxPoint x="1110" y="310" as="sourcePoint" />
            <mxPoint x="4130" y="310" as="targetPoint" />
            <mxPoint as="offset" />
          </mxGeometry>
        </mxCell>
        <mxCell id="JOs6g6HiKCz4FtPnYZxF-116" value="RFC 2617 - HTTP Authentication: Basic and Digest Access Authentication" style="endArrow=none;html=1;rounded=0;fontSize=13;fontColor=#000000;strokeColor=#B5739D;startArrow=oval;startFill=1;labelBackgroundColor=none;fontStyle=1;strokeWidth=2;align=left;verticalAlign=bottom;" parent="1" edge="1">
          <mxGeometry x="-0.9868" width="50" height="50" relative="1" as="geometry">
            <mxPoint x="1110" y="350" as="sourcePoint" />
            <mxPoint x="4130" y="350" as="targetPoint" />
            <mxPoint as="offset" />
          </mxGeometry>
        </mxCell>
        <mxCell id="JOs6g6HiKCz4FtPnYZxF-118" value="RFC 2817 - Upgrading to TLS Within HTTP/1.1" style="endArrow=none;html=1;rounded=0;fontSize=13;fontColor=#000000;strokeColor=#B5739D;startArrow=oval;startFill=1;labelBackgroundColor=none;fontStyle=1;strokeWidth=2;align=left;verticalAlign=bottom;" parent="1" edge="1">
          <mxGeometry x="-0.9863" width="50" height="50" relative="1" as="geometry">
            <mxPoint x="1220" y="390" as="sourcePoint" />
            <mxPoint x="4130" y="390" as="targetPoint" />
            <mxPoint as="offset" />
          </mxGeometry>
        </mxCell>
        <mxCell id="JOs6g6HiKCz4FtPnYZxF-120" value="RFC 2818 - HTTP Over TLS" style="endArrow=none;html=1;rounded=0;fontSize=13;fontColor=#000000;strokeColor=#B5739D;startArrow=oval;startFill=1;labelBackgroundColor=none;fontStyle=1;strokeWidth=2;align=left;verticalAlign=bottom;" parent="1" edge="1">
          <mxGeometry x="-0.9863" width="50" height="50" relative="1" as="geometry">
            <mxPoint x="1220" y="429.9999999999999" as="sourcePoint" />
            <mxPoint x="4130" y="430" as="targetPoint" />
            <mxPoint as="offset" />
          </mxGeometry>
        </mxCell>
        <mxCell id="JOs6g6HiKCz4FtPnYZxF-121" value="RFC 3864 - BCP 90 - Registration Procedures for Message Header Fields" style="endArrow=none;html=1;rounded=0;fontSize=13;fontColor=#000000;strokeColor=#99CCFF;startArrow=oval;startFill=1;labelBackgroundColor=none;fontStyle=1;strokeWidth=2;align=left;verticalAlign=bottom;" parent="1" edge="1">
          <mxGeometry x="-0.9833" width="50" height="50" relative="1" as="geometry">
            <mxPoint x="1740" y="469.9999999999999" as="sourcePoint" />
            <mxPoint x="4130" y="470" as="targetPoint" />
            <mxPoint as="offset" />
          </mxGeometry>
        </mxCell>
        <mxCell id="JOs6g6HiKCz4FtPnYZxF-122" value="RFC 4395 - BCP 35 - Guidelines and Registration Procedures for New URI Schemes" style="endArrow=none;html=1;rounded=0;fontSize=13;fontColor=#000000;strokeColor=#B5739D;startArrow=oval;startFill=1;labelBackgroundColor=none;fontStyle=1;strokeWidth=2;align=left;verticalAlign=bottom;" parent="1" edge="1">
          <mxGeometry x="-0.982" width="50" height="50" relative="1" as="geometry">
            <mxPoint x="1910" y="509.9999999999999" as="sourcePoint" />
            <mxPoint x="4130" y="510" as="targetPoint" />
            <mxPoint as="offset" />
          </mxGeometry>
        </mxCell>
        <mxCell id="JOs6g6HiKCz4FtPnYZxF-125" value="RFC 5785 - Defining Well-Known Uniform Resource Identifiers (URIs)" style="endArrow=none;html=1;rounded=0;fontSize=13;fontColor=#000000;strokeColor=#B5739D;startArrow=oval;startFill=1;labelBackgroundColor=none;fontStyle=1;strokeWidth=2;align=left;verticalAlign=bottom;" parent="1" edge="1">
          <mxGeometry x="-0.9767" width="50" height="50" relative="1" as="geometry">
            <mxPoint x="2410" y="549.9999999999999" as="sourcePoint" />
            <mxPoint x="4130" y="550" as="targetPoint" />
            <mxPoint as="offset" />
          </mxGeometry>
        </mxCell>
        <mxCell id="JOs6g6HiKCz4FtPnYZxF-126" value="RFC 6266 - Use of the Content-Disposition Header Field in the Hypertext Transfer Protocol (HTTP)" style="endArrow=none;html=1;rounded=0;fontSize=13;fontColor=#000000;strokeColor=#99CCFF;startArrow=oval;startFill=1;labelBackgroundColor=none;fontStyle=1;strokeWidth=2;align=left;verticalAlign=bottom;" parent="1" edge="1">
          <mxGeometry x="-0.9747" width="50" height="50" relative="1" as="geometry">
            <mxPoint x="2550" y="589.9999999999999" as="sourcePoint" />
            <mxPoint x="4130" y="590" as="targetPoint" />
            <mxPoint as="offset" />
          </mxGeometry>
        </mxCell>
        <mxCell id="JOs6g6HiKCz4FtPnYZxF-127" value="RFC 6585 - Additional HTTP Status Codes" style="endArrow=none;html=1;rounded=0;fontSize=13;fontColor=#000000;strokeColor=#99CCFF;startArrow=oval;startFill=1;labelBackgroundColor=none;fontStyle=1;strokeWidth=2;align=left;verticalAlign=bottom;" parent="1" edge="1">
          <mxGeometry x="-0.973" width="50" height="50" relative="1" as="geometry">
            <mxPoint x="2650" y="629.9999999999999" as="sourcePoint" />
            <mxPoint x="4130" y="630" as="targetPoint" />
            <mxPoint as="offset" />
          </mxGeometry>
        </mxCell>
        <mxCell id="JOs6g6HiKCz4FtPnYZxF-128" value="RFC 7230 - HTTP/1.1: Message Syntax and Routing" style="endArrow=none;html=1;rounded=0;fontSize=13;fontColor=#000000;strokeColor=#B5739D;startArrow=oval;startFill=1;labelBackgroundColor=none;fontStyle=1;strokeWidth=2;align=left;verticalAlign=bottom;" parent="1" edge="1">
          <mxGeometry x="-0.9701" width="50" height="50" relative="1" as="geometry">
            <mxPoint x="2790" y="670" as="sourcePoint" />
            <mxPoint x="4130" y="670" as="targetPoint" />
            <mxPoint as="offset" />
          </mxGeometry>
        </mxCell>
        <mxCell id="JOs6g6HiKCz4FtPnYZxF-131" value="RFC 7231 - HTTP/1.1: Semantics and Content" style="endArrow=none;html=1;rounded=0;fontSize=13;fontColor=#000000;strokeColor=#B5739D;startArrow=oval;startFill=1;labelBackgroundColor=none;fontStyle=1;strokeWidth=2;align=left;verticalAlign=bottom;" parent="1" edge="1">
          <mxGeometry x="-0.9701" width="50" height="50" relative="1" as="geometry">
            <mxPoint x="2790" y="710" as="sourcePoint" />
            <mxPoint x="4130" y="710" as="targetPoint" />
            <mxPoint as="offset" />
          </mxGeometry>
        </mxCell>
        <mxCell id="JOs6g6HiKCz4FtPnYZxF-132" value="RFC 7232 - HTTP/1.1: Conditional Requests" style="endArrow=none;html=1;rounded=0;fontSize=13;fontColor=#000000;strokeColor=#B5739D;startArrow=oval;startFill=1;labelBackgroundColor=none;fontStyle=1;strokeWidth=2;align=left;verticalAlign=bottom;" parent="1" edge="1">
          <mxGeometry x="-0.9701" width="50" height="50" relative="1" as="geometry">
            <mxPoint x="2790" y="750" as="sourcePoint" />
            <mxPoint x="4130" y="750" as="targetPoint" />
            <mxPoint as="offset" />
          </mxGeometry>
        </mxCell>
        <mxCell id="JOs6g6HiKCz4FtPnYZxF-133" value="RFC 7233 - HTTP/1.1: Range Requests " style="endArrow=none;html=1;rounded=0;fontSize=13;fontColor=#000000;strokeColor=#B5739D;startArrow=oval;startFill=1;labelBackgroundColor=none;fontStyle=1;strokeWidth=2;align=left;verticalAlign=bottom;" parent="1" edge="1">
          <mxGeometry x="-0.9701" width="50" height="50" relative="1" as="geometry">
            <mxPoint x="2790" y="790" as="sourcePoint" />
            <mxPoint x="4130" y="790" as="targetPoint" />
            <mxPoint as="offset" />
          </mxGeometry>
        </mxCell>
        <mxCell id="JOs6g6HiKCz4FtPnYZxF-134" value="RFC 7234 - HTTP/1.1: Caching " style="endArrow=none;html=1;rounded=0;fontSize=13;fontColor=#000000;strokeColor=#99CCFF;startArrow=oval;startFill=1;labelBackgroundColor=none;fontStyle=1;strokeWidth=2;align=left;verticalAlign=bottom;" parent="1" edge="1">
          <mxGeometry x="-0.9701" width="50" height="50" relative="1" as="geometry">
            <mxPoint x="2790" y="830" as="sourcePoint" />
            <mxPoint x="4130" y="830" as="targetPoint" />
            <mxPoint as="offset" />
          </mxGeometry>
        </mxCell>
        <mxCell id="JOs6g6HiKCz4FtPnYZxF-135" value="RFC 7235 - HTTP/1.1: Authentication " style="endArrow=none;html=1;rounded=0;fontSize=13;fontColor=#000000;strokeColor=#B5739D;startArrow=oval;startFill=1;labelBackgroundColor=none;fontStyle=1;strokeWidth=2;align=left;verticalAlign=bottom;" parent="1" edge="1">
          <mxGeometry x="-0.9701" width="50" height="50" relative="1" as="geometry">
            <mxPoint x="2790" y="870" as="sourcePoint" />
            <mxPoint x="4130" y="870" as="targetPoint" />
            <mxPoint as="offset" />
          </mxGeometry>
        </mxCell>
        <mxCell id="JOs6g6HiKCz4FtPnYZxF-141" value="RFC 7238 - The Hypertext Transfer Protocol Status Code 308 (Permanent Redirect)" style="endArrow=none;html=1;rounded=0;fontSize=13;fontColor=#000000;strokeColor=#B5739D;startArrow=oval;startFill=1;labelBackgroundColor=none;fontStyle=1;strokeWidth=2;align=left;verticalAlign=bottom;" parent="1" edge="1">
          <mxGeometry x="-0.9701" width="50" height="50" relative="1" as="geometry">
            <mxPoint x="2790" y="910" as="sourcePoint" />
            <mxPoint x="4130" y="910" as="targetPoint" />
            <mxPoint as="offset" />
          </mxGeometry>
        </mxCell>
        <mxCell id="JOs6g6HiKCz4FtPnYZxF-142" value="RFC 7538 - The Hypertext Transfer Protocol Status Code 308 (Permanent Redirect)" style="endArrow=none;html=1;rounded=0;fontSize=13;fontColor=#000000;strokeColor=#B5739D;startArrow=oval;startFill=1;labelBackgroundColor=none;fontStyle=1;strokeWidth=2;align=left;verticalAlign=bottom;" parent="1" edge="1">
          <mxGeometry x="-0.9643" width="50" height="50" relative="1" as="geometry">
            <mxPoint x="3010" y="950" as="sourcePoint" />
            <mxPoint x="4130" y="950" as="targetPoint" />
            <mxPoint as="offset" />
          </mxGeometry>
        </mxCell>
        <mxCell id="JOs6g6HiKCz4FtPnYZxF-144" value="RFC 7540 - HTTP/2" style="endArrow=none;html=1;rounded=0;fontSize=13;fontColor=#000000;strokeColor=#B5739D;startArrow=oval;startFill=1;labelBackgroundColor=none;fontStyle=1;strokeWidth=2;align=left;verticalAlign=bottom;" parent="1" edge="1">
          <mxGeometry x="-0.964" width="50" height="50" relative="1" as="geometry">
            <mxPoint x="3020" y="990" as="sourcePoint" />
            <mxPoint x="4130" y="990" as="targetPoint" />
            <mxPoint as="offset" />
          </mxGeometry>
        </mxCell>
        <mxCell id="JOs6g6HiKCz4FtPnYZxF-145" value="RFC 7595 - Guidelines and Registration Procedures for URI Schemes" style="endArrow=none;html=1;rounded=0;fontSize=13;fontColor=#000000;strokeColor=#99CCFF;startArrow=oval;startFill=1;labelBackgroundColor=none;fontStyle=1;strokeWidth=2;align=left;verticalAlign=bottom;" parent="1" edge="1">
          <mxGeometry x="-0.9636" width="50" height="50" relative="1" as="geometry">
            <mxPoint x="3030" y="1030" as="sourcePoint" />
            <mxPoint x="4130" y="1030" as="targetPoint" />
            <mxPoint as="offset" />
          </mxGeometry>
        </mxCell>
        <mxCell id="JOs6g6HiKCz4FtPnYZxF-146" value="RFC 7615 - HTTP Authentication-Info and Proxy-Authentication-Info Response Header Fields" style="endArrow=none;html=1;rounded=0;fontSize=13;fontColor=#000000;strokeColor=#B5739D;startArrow=oval;startFill=1;labelBackgroundColor=none;fontStyle=1;strokeWidth=2;align=left;verticalAlign=bottom;" parent="1" edge="1">
          <mxGeometry x="-0.9626" width="50" height="50" relative="1" as="geometry">
            <mxPoint x="3060" y="1070" as="sourcePoint" />
            <mxPoint x="4130" y="1070" as="targetPoint" />
            <mxPoint as="offset" />
          </mxGeometry>
        </mxCell>
        <mxCell id="JOs6g6HiKCz4FtPnYZxF-147" value="RFC 7616 - HTTP Digest Access Authentication" style="endArrow=none;html=1;rounded=0;fontSize=13;fontColor=#000000;strokeColor=#99CCFF;startArrow=oval;startFill=1;labelBackgroundColor=none;fontStyle=1;strokeWidth=2;align=left;verticalAlign=bottom;" parent="1" edge="1">
          <mxGeometry x="-0.9626" width="50" height="50" relative="1" as="geometry">
            <mxPoint x="3060" y="1110" as="sourcePoint" />
            <mxPoint x="4130" y="1110" as="targetPoint" />
            <mxPoint as="offset" />
          </mxGeometry>
        </mxCell>
        <mxCell id="JOs6g6HiKCz4FtPnYZxF-148" value="RFC 7617 - The &#39;Basic&#39; HTTP Authentication Scheme" style="endArrow=none;html=1;rounded=0;fontSize=13;fontColor=#000000;strokeColor=#99CCFF;startArrow=oval;startFill=1;labelBackgroundColor=none;fontStyle=1;strokeWidth=2;align=left;verticalAlign=bottom;" parent="1" edge="1">
          <mxGeometry x="-0.9626" width="50" height="50" relative="1" as="geometry">
            <mxPoint x="3060" y="1150" as="sourcePoint" />
            <mxPoint x="4130" y="1150" as="targetPoint" />
            <mxPoint as="offset" />
          </mxGeometry>
        </mxCell>
        <mxCell id="JOs6g6HiKCz4FtPnYZxF-149" value="RFC 7694 - Hypertext Transfer Protocol (HTTP) Client-Initiated Content-Encoding" style="endArrow=none;html=1;rounded=0;fontSize=13;fontColor=#000000;strokeColor=#B5739D;startArrow=oval;startFill=1;labelBackgroundColor=none;fontStyle=1;strokeWidth=2;align=left;verticalAlign=bottom;" parent="1" edge="1">
          <mxGeometry x="-0.9619" width="50" height="50" relative="1" as="geometry">
            <mxPoint x="3080" y="1190" as="sourcePoint" />
            <mxPoint x="4130" y="1190" as="targetPoint" />
            <mxPoint as="offset" />
          </mxGeometry>
        </mxCell>
        <mxCell id="JOs6g6HiKCz4FtPnYZxF-153" value="RFC 8615 - Well-Known Uniform Resource Identifiers (URIs)" style="endArrow=none;html=1;rounded=0;fontSize=13;fontColor=#000000;strokeColor=#99CCFF;startArrow=oval;startFill=1;labelBackgroundColor=none;fontStyle=1;strokeWidth=2;align=left;verticalAlign=bottom;" parent="1" edge="1">
          <mxGeometry x="-0.9365" width="50" height="50" relative="1" as="geometry">
            <mxPoint x="3500" y="1230" as="sourcePoint" />
            <mxPoint x="4130" y="1230" as="targetPoint" />
            <mxPoint as="offset" />
          </mxGeometry>
        </mxCell>
        <mxCell id="JOs6g6HiKCz4FtPnYZxF-155" value="RFC 8740 - Using TLS 1.3 with HTTP/2" style="endArrow=none;html=1;rounded=0;fontSize=13;fontColor=#000000;strokeColor=#B5739D;startArrow=oval;startFill=1;labelBackgroundColor=none;fontStyle=1;strokeWidth=2;align=left;verticalAlign=bottom;" parent="1" edge="1">
          <mxGeometry x="-0.9259" width="50" height="50" relative="1" as="geometry">
            <mxPoint x="3590" y="1270" as="sourcePoint" />
            <mxPoint x="4130" y="1270" as="targetPoint" />
            <mxPoint as="offset" />
          </mxGeometry>
        </mxCell>
        <mxCell id="JOs6g6HiKCz4FtPnYZxF-156" value="RFC 9110 - STD 97 - HTTP Semantics" style="endArrow=none;html=1;rounded=0;fontSize=13;fontColor=#000000;strokeColor=#99CCFF;startArrow=oval;startFill=1;labelBackgroundColor=none;fontStyle=1;strokeWidth=2;align=left;verticalAlign=bottom;" parent="1" edge="1">
          <mxGeometry x="-0.8462" width="50" height="50" relative="1" as="geometry">
            <mxPoint x="3870" y="1310" as="sourcePoint" />
            <mxPoint x="4130" y="1310" as="targetPoint" />
            <mxPoint as="offset" />
          </mxGeometry>
        </mxCell>
        <mxCell id="JOs6g6HiKCz4FtPnYZxF-167" value="RFC 9113 - HTTP/2 " style="endArrow=none;html=1;rounded=0;fontSize=13;fontColor=#000000;strokeColor=#99CCFF;startArrow=oval;startFill=1;labelBackgroundColor=none;fontStyle=1;strokeWidth=2;align=left;verticalAlign=bottom;" parent="1" edge="1">
          <mxGeometry x="-0.84" width="50" height="50" relative="1" as="geometry">
            <mxPoint x="3880" y="1350" as="sourcePoint" />
            <mxPoint x="4130" y="1350" as="targetPoint" />
            <mxPoint as="offset" />
          </mxGeometry>
        </mxCell>
      </root>
    </mxGraphModel>
  </diagram>
</mxfile>
